<?xml version="1.0" encoding="iso-8859-1"?>
<!-- Generator: Adobe Illustrator 19.0.0, SVG Export Plug-In . SVG Version: 6.00 Build 0)  -->
<svg version="1.1" id="Layer_1" xmlns="http://www.w3.org/2000/svg" xmlns:xlink="http://www.w3.org/1999/xlink" x="0px" y="0px"
	 viewBox="0 0 512 512" style="enable-background:new 0 0 512 512;" xml:space="preserve">
<g>
	<g>
		<path d="M256,158.998c-53.625,0-97.266,43.624-97.266,97.266c0,53.625,43.641,97.266,97.266,97.266s97.249-43.641,97.266-97.266
			C353.266,202.639,309.625,158.998,256,158.998z M256,319.396c-34.817,0-63.132-28.332-63.132-63.132
			c0-34.8,28.315-63.132,63.132-63.132c34.8,0,63.132,28.315,63.132,63.132S290.817,319.396,256,319.396z"/>
	</g>
</g>
<g>
	<g>
		<path d="M439.114,366.621c-40.091,0-72.689,32.598-72.689,72.689c0,40.091,32.598,72.689,72.689,72.689
			c40.074,0,72.689-32.598,72.689-72.689C511.804,399.22,479.205,366.621,439.114,366.621z M439.114,477.866
			c-21.249,0-38.555-17.306-38.555-38.555s17.306-38.555,38.555-38.555s38.555,17.306,38.555,38.555
			S460.363,477.866,439.114,477.866z"/>
	</g>
</g>
<g>
	<g>
		<path d="M359.291,0c-40.245,0-72.962,32.718-72.962,72.962c0,40.245,32.735,72.962,72.962,72.962s72.962-32.718,72.962-72.962
			C432.253,32.718,399.535,0,359.291,0z M359.291,111.79c-21.402,0-38.828-17.426-38.828-38.828
			c0-21.402,17.409-38.828,38.828-38.828s38.828,17.426,38.828,38.828C398.119,94.365,380.693,111.79,359.291,111.79z"/>
	</g>
</g>
<g>
	<g>
		<path d="M127.876,80.677c-26.574,0-48.198,21.624-48.198,48.198s21.624,48.198,48.198,48.198
			c26.574,0,48.198-21.624,48.198-48.198S154.45,80.677,127.876,80.677z M127.876,142.938c-7.749,0-14.063-6.298-14.063-14.063
			c0-7.749,6.315-14.063,14.063-14.063c7.748,0,14.063,6.315,14.063,14.063S135.642,142.938,127.876,142.938z"/>
	</g>
</g>
<g>
	<g>
		<path d="M64.915,351.261c-35.688,0-64.719,29.031-64.719,64.719c0,35.688,29.031,64.719,64.719,64.719
			c35.688,0,64.719-29.031,64.719-64.719C129.634,380.292,100.603,351.261,64.915,351.261z M64.915,446.564
			c-16.862,0-30.584-13.722-30.584-30.584s13.722-30.584,30.584-30.584S95.5,399.117,95.5,415.98S81.778,446.564,64.915,446.564z"/>
	</g>
</g>
<g>
	<g>
		<path d="M410.288,386.163l-81.547-81.923c-6.656-6.707-17.477-6.742-24.133-0.068c-6.69,6.656-6.724,17.46-0.068,24.133
			l81.547,81.923c3.328,3.345,7.714,5.035,12.101,5.035c4.352,0,8.721-1.656,12.032-4.967
			C416.91,403.64,416.944,392.837,410.288,386.163z"/>
	</g>
</g>
<g>
	<g>
		<path d="M209.406,185.265l-44.955-45.177c-6.656-6.673-17.46-6.707-24.15-0.051c-6.673,6.639-6.69,17.443-0.051,24.133
			l44.972,45.177c3.345,3.345,7.714,5.018,12.101,5.018c4.352,0,8.704-1.656,12.032-4.967
			C216.029,202.759,216.063,191.955,209.406,185.265z"/>
	</g>
</g>
<g>
	<g>
		<path d="M207.99,297.653c-6.178-7.1-16.965-7.902-24.082-1.724l-82.554,71.529c-7.117,6.161-7.885,16.948-1.724,24.082
			c3.362,3.891,8.124,5.888,12.903,5.888c3.96,0,7.953-1.365,11.179-4.164l82.554-71.529
			C213.383,315.573,214.151,304.787,207.99,297.653z"/>
	</g>
</g>
<g>
	<g>
		<path d="M337.923,110.988c-8.243-4.659-18.62-1.707-23.246,6.503l-31.199,55.486c-4.608,8.226-1.69,18.62,6.52,23.246
			c2.645,1.485,5.513,2.185,8.346,2.185c5.974,0,11.776-3.14,14.9-8.687l31.199-55.486
			C349.051,126.007,346.132,115.613,337.923,110.988z"/>
	</g>
</g>
<g>
</g>
<g>
</g>
<g>
</g>
<g>
</g>
<g>
</g>
<g>
</g>
<g>
</g>
<g>
</g>
<g>
</g>
<g>
</g>
<g>
</g>
<g>
</g>
<g>
</g>
<g>
</g>
<g>
</g>
</svg>
