<svg id="election_x5F_paper" enable-background="new 0 0 300 300" height="512" viewBox="0 0 300 300" width="512" xmlns="http://www.w3.org/2000/svg"><g><circle cx="158" cy="140" fill="#e5efef" r="92"/><g><path d="m50 44h148v212h-148z" fill="#fff"/><path d="m198 260h-148c-2.211 0-4-1.791-4-4v-212c0-2.209 1.789-4 4-4h148c2.211 0 4 1.791 4 4v212c0 2.209-1.789 4-4 4zm-144-8h140v-204h-140z" fill="#4c241d"/></g><g><path d="m187.414 128.586h20v92h-20z" fill="#ffce56" transform="matrix(.707 .707 -.707 .707 181.272 -88.458)"/><path d="m171.957 218.184c-1.062 0-2.078-.422-2.828-1.172l-14.141-14.143c-1.562-1.562-1.562-4.094 0-5.656l65.055-65.053c.75-.75 1.766-1.172 2.828-1.172 1.062 0 2.078.422 2.828 1.172l14.141 14.143c1.562 1.562 1.562 4.094 0 5.656l-65.055 65.053c-.75.75-1.765 1.172-2.828 1.172zm-8.484-18.143 8.484 8.486 59.398-59.396-8.484-8.486z" fill="#4c241d"/></g><g><path d="m157.816 200.042 14.142 14.142-21.213 7.071z" fill="#e7d1c4"/><path d="m150.746 225.254c-1.043 0-2.066-.408-2.828-1.172-1.07-1.07-1.445-2.656-.965-4.094l7.07-21.213c.438-1.314 1.523-2.309 2.875-2.627 1.352-.322 2.766.084 3.746 1.064l14.141 14.143c.98.98 1.383 2.398 1.066 3.748-.32 1.348-1.316 2.436-2.629 2.875l-21.211 7.07c-.413.14-.843.206-1.265.206zm8.816-17.807-2.492 7.482 7.48-2.494z" fill="#4c241d"/></g><g><path d="m241.255 130.745c-3.905-3.905-10.237-3.905-14.142 0l-4.243 4.243 14.142 14.142 4.243-4.243c3.905-3.905 3.905-10.237 0-14.142z" fill="#e66353"/><path d="m237.012 153.131c-1.062 0-2.078-.422-2.828-1.172l-14.141-14.143c-1.562-1.562-1.562-4.094 0-5.656l4.242-4.242c5.461-5.457 14.336-5.457 19.797 0 2.645 2.643 4.102 6.158 4.102 9.898s-1.457 7.256-4.102 9.9l-4.242 4.242c-.75.751-1.766 1.173-2.828 1.173zm-8.485-18.143 8.484 8.484 1.414-1.414c1.133-1.133 1.758-2.641 1.758-4.242s-.625-3.109-1.758-4.24c0-.002 0-.002 0-.002-2.336-2.34-6.148-2.34-8.484 0z" fill="#4c241d"/></g><g><path d="m70 192h40v40h-40z" fill="#a9ba5a"/><path d="m110 236h-40c-2.211 0-4-1.791-4-4v-40c0-2.209 1.789-4 4-4h40c2.211 0 4 1.791 4 4v40c0 2.209-1.789 4-4 4zm-36-8h32v-32h-32z" fill="#4c241d"/></g><path d="m98 224c-1.023 0-2.047-.391-2.828-1.172l-12-12c-1.562-1.562-1.562-4.094 0-5.656s4.094-1.562 5.656 0l9.172 9.172 25.172-25.172c1.562-1.562 4.094-1.562 5.656 0s1.562 4.094 0 5.656l-28 28c-.781.781-1.805 1.172-2.828 1.172z" fill="#4c241d"/><g><circle cx="93.375" cy="85.463" fill="#e7d1c4" r="14"/><path d="m93.375 103.463c-9.926 0-18-8.074-18-18s8.074-18 18-18 18 8.074 18 18-8.074 18-18 18zm0-28c-5.516 0-10 4.486-10 10s4.484 10 10 10 10-4.486 10-10-4.484-10-10-10z" fill="#4c241d"/></g><g><path d="m71.375 120c0-11.342 9.85-20.537 22-20.537 12.15 0 22 9.195 22 20.537z" fill="#e7d1c4"/><path d="m115.375 124h-44c-2.211 0-4-1.791-4-4 0-13.529 11.664-24.537 26-24.537s26 11.008 26 24.537c0 2.209-1.789 4-4 4zm-39.469-8h34.938c-1.953-7.193-9.043-12.537-17.469-12.537s-15.516 5.344-17.469 12.537z" fill="#4c241d"/></g><g fill="#4c241d"><path d="m234 56c-2.211 0-4-1.791-4-4v-8c0-2.209 1.789-4 4-4s4 1.791 4 4v8c0 2.209-1.789 4-4 4z"/><path d="m234 80c-2.211 0-4-1.791-4-4v-8c0-2.209 1.789-4 4-4s4 1.791 4 4v8c0 2.209-1.789 4-4 4z"/><path d="m226 64h-8c-2.211 0-4-1.791-4-4s1.789-4 4-4h8c2.211 0 4 1.791 4 4s-1.789 4-4 4z"/><path d="m250 64h-8c-2.211 0-4-1.791-4-4s1.789-4 4-4h8c2.211 0 4 1.791 4 4s-1.789 4-4 4z"/><path d="m222.753 105.311c0 2.362-1.914 4.277-4.276 4.277s-4.276-1.915-4.276-4.277 1.915-4.276 4.276-4.276c2.361-.001 4.276 1.914 4.276 4.276z"/><path d="m170 84h-36c-2.211 0-4-1.791-4-4s1.789-4 4-4h36c2.211 0 4 1.791 4 4s-1.789 4-4 4z"/><path d="m170 104h-36c-2.211 0-4-1.791-4-4s1.789-4 4-4h36c2.211 0 4 1.791 4 4s-1.789 4-4 4z"/><path d="m170 124h-36c-2.211 0-4-1.791-4-4s1.789-4 4-4h36c2.211 0 4 1.791 4 4s-1.789 4-4 4z"/><path d="m170 144h-100c-2.211 0-4-1.791-4-4s1.789-4 4-4h100c2.211 0 4 1.791 4 4s-1.789 4-4 4z"/><path d="m170 168h-100c-2.211 0-4-1.791-4-4s1.789-4 4-4h100c2.211 0 4 1.791 4 4s-1.789 4-4 4z"/></g></g></svg>